<?xml version="1.0"?>
<svg xmlns="http://www.w3.org/2000/svg" xmlns:xlink="http://www.w3.org/1999/xlink" xmlns:svgjs="http://svgjs.com/svgjs" version="1.1" width="512" height="512" x="0" y="0" viewBox="0 0 64 64" style="enable-background:new 0 0 512 512" xml:space="preserve" class=""><g><g xmlns="http://www.w3.org/2000/svg" id="Source_code-3" data-name="Source code"><path d="m40 43h-9l15 18-5-18z" fill="#dcc7be" data-original="#9bc9ff" style=""/><path d="m45 35h-9l4.5 7.2z" fill="#dcc7be" data-original="#9bc9ff" style=""/><path d="m41 43h10l-5-8h-1l-4.5 7.2z" fill="#dcc7be" data-original="#9bc9ff" style=""/><path d="m40.5 42.2-4.5-7.2-5 8h9z" fill="#dcc7be" data-original="#9bc9ff" style=""/><path d="m40 43h1l-.5-.8z" fill="#dcc7be" data-original="#9bc9ff" style=""/><path d="m56 35h-10l5 8z" fill="#dcc7be" data-original="#9bc9ff" style=""/><path d="m55 3h-48a4 4 0 0 0 -4 4v4h56v-4a4 4 0 0 0 -4-4z" fill="#dcc7be" data-original="#9bc9ff" style=""/><path d="m41 43 5 18 5-18z" fill="#dcc7be" data-original="#9bc9ff" style=""/><path d="m46 61 15-18h-10z" fill="#dcc7be" data-original="#9bc9ff" style=""/><path d="m51 43h10l-5-8z" fill="#dcc7be" data-original="#9bc9ff" style=""/><g fill="#1e81ce"><path d="m61.848 42.47-5-8a1 1 0 0 0 -.848-.47h-20a1 1 0 0 0 -.848.47l-5 8a1 1 0 0 0 .079 1.17l15 18a1 1 0 0 0 1.538 0l15-18a1 1 0 0 0 .079-1.17zm-20.048-.47 3.7-5.914 3.7 5.914zm7.88 2-3.68 13.263-3.684-13.263zm-1.88-8h6.4l-3.2 5.114zm-7.3 4.314-2.7-4.314h5.4zm-1.3 1.686h-6.4l3.2-5.113zm1.044 2 3.552 12.788-10.661-12.788zm11.52 0h7.105l-10.661 12.788zm1.036-2 3.2-5.113 3.2 5.113z" fill="#122c34" data-original="#1e81ce" style="" class=""/><path d="m55 2h-48a5.006 5.006 0 0 0 -5 5v48a5.006 5.006 0 0 0 5 5h31a1 1 0 0 0 0-2h-31a3 3 0 0 1 -3-3v-43h54v21a1 1 0 0 0 2 0v-26a5.006 5.006 0 0 0 -5-5zm-51 8v-3a3 3 0 0 1 3-3h48a3 3 0 0 1 3 3v3z" fill="#122c34" data-original="#1e81ce" style="" class=""/><path d="m6 6h2v2h-2z" fill="#122c34" data-original="#1e81ce" style="" class=""/><path d="m10 6h2v2h-2z" fill="#122c34" data-original="#1e81ce" style="" class=""/><path d="m14 6h2v2h-2z" fill="#122c34" data-original="#1e81ce" style="" class=""/><path d="m9 54a1 1 0 0 1 -1-1v-36a1 1 0 0 1 2 0v36a1 1 0 0 1 -1 1z" fill="#122c34" data-original="#1e81ce" style="" class=""/><path d="m16 24a1 1 0 0 1 -.707-.293l-3-3a1 1 0 0 1 0-1.414l3-3a1 1 0 0 1 1.414 1.414l-2.293 2.293 2.293 2.293a1 1 0 0 1 -.707 1.707z" fill="#122c34" data-original="#1e81ce" style="" class=""/><path d="m24 24a1 1 0 0 1 -.707-1.707l2.293-2.293-2.293-2.293a1 1 0 0 1 1.414-1.414l3 3a1 1 0 0 1 0 1.414l-3 3a1 1 0 0 1 -.707.293z" fill="#122c34" data-original="#1e81ce" style="" class=""/><path d="m19 25a.968.968 0 0 1 -.243-.03 1 1 0 0 1 -.728-1.213l2-8a1 1 0 0 1 1.94.486l-2 8a1 1 0 0 1 -.969.757z" fill="#122c34" data-original="#1e81ce" style="" class=""/><path d="m12 27h4v2h-4z" fill="#122c34" data-original="#1e81ce" style="" class=""/><path d="m18 27h6v2h-6z" fill="#122c34" data-original="#1e81ce" style="" class=""/><path d="m16 31h11v2h-11z" fill="#122c34" data-original="#1e81ce" style="" class=""/><path d="m29 31h2v2h-2z" fill="#122c34" data-original="#1e81ce" style="" class=""/><path d="m16 35h2v2h-2z" fill="#122c34" data-original="#1e81ce" style="" class=""/><path d="m20 35h4v2h-4z" fill="#122c34" data-original="#1e81ce" style="" class=""/><path d="m26 35h5v2h-5z" fill="#122c34" data-original="#1e81ce" style="" class=""/><path d="m12 39h4v2h-4z" fill="#122c34" data-original="#1e81ce" style="" class=""/><path d="m18 39h6v2h-6z" fill="#122c34" data-original="#1e81ce" style="" class=""/><path d="m16 43h8v2h-8z" fill="#122c34" data-original="#1e81ce" style="" class=""/><path d="m26 43h2v2h-2z" fill="#122c34" data-original="#1e81ce" style="" class=""/><path d="m16 47h11v2h-11z" fill="#122c34" data-original="#1e81ce" style="" class=""/><path d="m29 47h2v2h-2z" fill="#122c34" data-original="#1e81ce" style="" class=""/><path d="m12 52h4v2h-4z" fill="#122c34" data-original="#1e81ce" style="" class=""/><path d="m18 52h6v2h-6z" fill="#122c34" data-original="#1e81ce" style="" class=""/></g></g></g></svg>
